# xmcd CD database file
#
# Track frame offsets:
#	150
#	16762
#	32700
#	53282
#	75452
#	90977
#	94300
#	117450
#	131945
#	154402
#	170872
#
# Disc length: 2545 seconds
#
# Revision: 0
# Processed by: cddbd v1.5PL3 Copyright (c) Steve Scherf et al.
# Submitted via: CDex 1.51
#
DISCID=8509ef0b
DTITLE=フェビアン - dreamworld
DYEAR=1900
DGENRE=Japanese Pop
TTITLE0=Dream World
TTITLE1=Romeo
TTITLE2=Heart
TTITLE3=Jangly Guitar
TTITLE4=Winter's Tale
TTITLE5=Dream Tour
TTITLE6=悪戯 (いたずら)
TTITLE7=ガール・フレンド
TTITLE8=War
TTITLE9=デジャ・ヴ
TTITLE10=飛行帽とゴーグル
EXTD=
EXTT0=
EXTT1=
EXTT2=
EXTT3=
EXTT4=
EXTT5=
EXTT6=
EXTT7=
EXTT8=
EXTT9=
EXTT10=
PLAYORDER=
